<svg width="238" height="406" viewBox="0 0 238 406" fill="none" xmlns="http://www.w3.org/2000/svg">
<g filter="url(#filter0_i_49_3429)">
<path d="M55 81.2698C55 55.546 75.8533 34.6927 101.577 34.6927H136.577C162.301 34.6927 183.154 55.546 183.154 81.2698C183.154 106.994 162.301 127.847 136.577 127.847H101.577C75.8533 127.847 55 106.994 55 81.2698Z" fill="#444444"/>
<path d="M94 17.3463C94 7.76622 101.766 0 111.346 0H126.654C136.234 0 144 7.76622 144 17.3463C144 26.9265 136.234 34.6927 126.654 34.6927H111.346C101.766 34.6927 94 26.9265 94 17.3463Z" fill="#444444"/>
<path d="M55 138.255C55 132.408 59.7394 127.669 65.5857 127.669H172.568C178.414 127.669 183.154 132.408 183.154 138.255C183.154 144.101 178.414 148.84 172.568 148.84H65.5857C59.7394 148.84 55 144.101 55 138.255Z" fill="#444444"/>
<path d="M0 394.678C0 388.832 4.73938 384.092 10.5857 384.092H227.414C233.261 384.092 238 388.832 238 394.678C238 400.524 233.261 405.264 227.414 405.264H10.5857C4.73938 405.264 0 400.524 0 394.678Z" fill="#444444"/>
<path d="M67 147.791H171V405.21H67V147.791Z" fill="#444444"/>
<path d="M119 310.846L226 384.395H12L119 310.846Z" fill="#444444"/>
</g>
<defs>
<filter id="filter0_i_49_3429" x="-4" y="-4" width="242" height="409.264" filterUnits="userSpaceOnUse" color-interpolation-filters="sRGB">
<feFlood flood-opacity="0" result="BackgroundImageFix"/>
<feBlend mode="normal" in="SourceGraphic" in2="BackgroundImageFix" result="shape"/>
<feColorMatrix in="SourceAlpha" type="matrix" values="0 0 0 0 0 0 0 0 0 0 0 0 0 0 0 0 0 0 127 0" result="hardAlpha"/>
<feOffset dx="-10" dy="-10"/>
<feGaussianBlur stdDeviation="2"/>
<feComposite in2="hardAlpha" operator="arithmetic" k2="-1" k3="1"/>
<feColorMatrix type="matrix" values="0 0 0 0 0 0 0 0 0 0 0 0 0 0 0 0 0 0 0.25 0"/>
<feBlend mode="normal" in2="shape" result="effect1_innerShadow_49_3429"/>
</filter>
</defs>
</svg>
