<svg width="235" height="360" viewBox="0 0 235 360" fill="none" xmlns="http://www.w3.org/2000/svg">
<g filter="url(#filter0_i_49_3414)">
<path d="M0 350.449C0 345.205 4.25072 340.954 9.49425 340.954H200.811C206.055 340.954 210.305 345.205 210.305 350.449C210.305 355.692 206.055 359.943 200.811 359.943H9.49425C4.25072 359.943 0 355.692 0 350.449Z" fill="#CBCBCB"/>
<path d="M105 278L207 346H3L105 278Z" fill="#CBCBCB"/>
<path d="M37.9963 323.647H174.076C178.58 310.183 180.83 302.458 181.372 286.436C183.043 269.942 179.616 260.795 174.076 244.466C154.906 210.91 140.411 193.818 109.356 165.718C129.896 166.501 140.999 163.793 160.607 157.497C186.194 175.248 200.318 184.59 216.276 175.669C229.648 170.539 235.301 165.414 233.948 142.353C236.711 135.719 234.509 130.517 221.577 117.69L154.636 61.4409L134.313 49.3258L125.918 39.3741V-9.15527e-05C101.781 9.70972 89.4065 15.8404 88.5903 39.3741C71.6413 42.9504 63.1425 46.9468 49.2685 56.6814C18.2861 83.6282 8.56024 95.9021 3.09274 149.708C8.96182 192.553 14.4195 224.646 30.2703 261.34C37.0915 285.72 40.0819 299.378 37.9963 323.647Z" fill="#CBCBCB"/>
</g>
<defs>
<filter id="filter0_i_49_3414" x="-4" y="-4.00009" width="239" height="363.943" filterUnits="userSpaceOnUse" color-interpolation-filters="sRGB">
<feFlood flood-opacity="0" result="BackgroundImageFix"/>
<feBlend mode="normal" in="SourceGraphic" in2="BackgroundImageFix" result="shape"/>
<feColorMatrix in="SourceAlpha" type="matrix" values="0 0 0 0 0 0 0 0 0 0 0 0 0 0 0 0 0 0 127 0" result="hardAlpha"/>
<feOffset dx="-10" dy="-10"/>
<feGaussianBlur stdDeviation="2"/>
<feComposite in2="hardAlpha" operator="arithmetic" k2="-1" k3="1"/>
<feColorMatrix type="matrix" values="0 0 0 0 0 0 0 0 0 0 0 0 0 0 0 0 0 0 0.25 0"/>
<feBlend mode="normal" in2="shape" result="effect1_innerShadow_49_3414"/>
</filter>
</defs>
</svg>
