<svg width="238" height="536" viewBox="0 0 238 536" fill="none" xmlns="http://www.w3.org/2000/svg">
<g filter="url(#filter0_i_49_3481)">
<path d="M171 86L171 210H119L171 86Z" fill="#CBCBCB"/>
<path d="M119 260L171 210H67L119 260Z" fill="#CBCBCB"/>
<path d="M119 86L171 242H67L119 86Z" fill="#CBCBCB"/>
<path d="M93 86L119 210H67L93 86Z" fill="#CBCBCB"/>
<path d="M145.252 86L171 210H120L145.252 86Z" fill="#CBCBCB"/>
<path d="M54 240.316C54 235.099 58.2291 230.87 63.4459 230.87H172.708C177.925 230.87 182.154 235.099 182.154 240.316C182.154 245.533 177.925 249.762 172.708 249.762H63.4459C58.2291 249.762 54 245.533 54 240.316Z" fill="#CBCBCB"/>
<path d="M67 86L116 210H67V86Z" fill="#CBCBCB"/>
<path d="M54 256.626C54 251.409 58.2291 247.18 63.4459 247.18H172.708C177.925 247.18 182.154 251.409 182.154 256.626C182.154 261.843 177.925 266.072 172.708 266.072H63.4459C58.2291 266.072 54 261.843 54 256.626Z" fill="#CBCBCB"/>
<path d="M54 272.21C54 266.993 58.2291 262.764 63.4459 262.764H172.708C177.925 262.764 182.154 266.993 182.154 272.21C182.154 277.427 177.925 281.656 172.708 281.656H63.4459C58.2291 281.656 54 277.427 54 272.21Z" fill="#CBCBCB"/>
<path d="M0 526.486C0 521.269 4.22908 517.04 9.44592 517.04H228.554C233.771 517.04 238 521.269 238 526.486C238 531.702 233.771 535.932 228.554 535.932H9.44593C4.22909 535.932 0 531.702 0 526.486Z" fill="#CBCBCB"/>
<g filter="url(#filter1_d_49_3481)">
<path d="M67 276.872H171V506.575H67V276.872Z" fill="#CBCBCB"/>
</g>
<path d="M119.5 454L233 522H6L119.5 454Z" fill="#CBCBCB"/>
<path d="M109 0H129V121H109V0Z" fill="#CBCBCB"/>
<path d="M165 39V58H76V39H165Z" fill="#CBCBCB"/>
</g>
<defs>
<filter id="filter0_i_49_3481" x="-4" y="-4" width="242" height="539.932" filterUnits="userSpaceOnUse" color-interpolation-filters="sRGB">
<feFlood flood-opacity="0" result="BackgroundImageFix"/>
<feBlend mode="normal" in="SourceGraphic" in2="BackgroundImageFix" result="shape"/>
<feColorMatrix in="SourceAlpha" type="matrix" values="0 0 0 0 0 0 0 0 0 0 0 0 0 0 0 0 0 0 127 0" result="hardAlpha"/>
<feOffset dx="-10" dy="-10"/>
<feGaussianBlur stdDeviation="2"/>
<feComposite in2="hardAlpha" operator="arithmetic" k2="-1" k3="1"/>
<feColorMatrix type="matrix" values="0 0 0 0 0 0 0 0 0 0 0 0 0 0 0 0 0 0 0.25 0"/>
<feBlend mode="normal" in2="shape" result="effect1_innerShadow_49_3481"/>
</filter>
<filter id="filter1_d_49_3481" x="63" y="276.872" width="112" height="237.703" filterUnits="userSpaceOnUse" color-interpolation-filters="sRGB">
<feFlood flood-opacity="0" result="BackgroundImageFix"/>
<feColorMatrix in="SourceAlpha" type="matrix" values="0 0 0 0 0 0 0 0 0 0 0 0 0 0 0 0 0 0 127 0" result="hardAlpha"/>
<feOffset dy="4"/>
<feGaussianBlur stdDeviation="2"/>
<feComposite in2="hardAlpha" operator="out"/>
<feColorMatrix type="matrix" values="0 0 0 0 0 0 0 0 0 0 0 0 0 0 0 0 0 0 0.25 0"/>
<feBlend mode="normal" in2="BackgroundImageFix" result="effect1_dropShadow_49_3481"/>
<feBlend mode="normal" in="SourceGraphic" in2="effect1_dropShadow_49_3481" result="shape"/>
</filter>
</defs>
</svg>
