<svg width="238" height="422" viewBox="0 0 238 422" fill="none" xmlns="http://www.w3.org/2000/svg">
<g filter="url(#filter0_i_49_3438)">
<path d="M20 148.976C20 142.917 24.9113 138.006 30.9697 138.006H210.03C216.089 138.006 221 142.917 221 148.976C221 155.034 216.089 159.946 210.03 159.946H30.9697C24.9113 159.946 20 155.034 20 148.976Z" fill="#CBCBCB"/>
<path d="M0 410.353C0 404.39 4.83413 399.556 10.7973 399.556H227.203C233.166 399.556 238 404.39 238 410.353C238 416.316 233.166 421.15 227.203 421.15H10.7973C4.83413 421.15 0 416.316 0 410.353Z" fill="#CBCBCB"/>
<path d="M41 159H199L211 421H30L41 159Z" fill="#CBCBCB"/>
<path d="M30 0H66V142.252H30V0Z" fill="#CBCBCB"/>
<path d="M98 0H142V142.252H98V0Z" fill="#CBCBCB"/>
<path d="M30 0H66V142.252H30V0Z" fill="#CBCBCB"/>
<path d="M175 0H211V142.252H175V0Z" fill="#CBCBCB"/>
<path d="M30 142H211V22H30V142Z" fill="#CBCBCB"/>
<path d="M119 324.845L226 399.864H12L119 324.845Z" fill="#CBCBCB"/>
<path d="M121 297L214.531 159H27.4693L121 297Z" fill="#CBCBCB"/>
</g>
<defs>
<filter id="filter0_i_49_3438" x="-5" y="-5" width="243" height="426.15" filterUnits="userSpaceOnUse" color-interpolation-filters="sRGB">
<feFlood flood-opacity="0" result="BackgroundImageFix"/>
<feBlend mode="normal" in="SourceGraphic" in2="BackgroundImageFix" result="shape"/>
<feColorMatrix in="SourceAlpha" type="matrix" values="0 0 0 0 0 0 0 0 0 0 0 0 0 0 0 0 0 0 127 0" result="hardAlpha"/>
<feOffset dx="-10" dy="-10"/>
<feGaussianBlur stdDeviation="2.5"/>
<feComposite in2="hardAlpha" operator="arithmetic" k2="-1" k3="1"/>
<feColorMatrix type="matrix" values="0 0 0 0 0 0 0 0 0 0 0 0 0 0 0 0 0 0 0.25 0"/>
<feBlend mode="normal" in2="shape" result="effect1_innerShadow_49_3438"/>
</filter>
</defs>
</svg>
